<svg xmlns="http://www.w3.org/2000/svg" viewBox="0 0 24 24"><title>investments</title><g id="图层_2" data-name="图层 2"><path d="M12,13a3,3,0,0,1,3,3,5,5,0,1,0-6,0A3,3,0,0,1,12,13Z" style="fill:none"/><path d="M11,18.92V19a1,1,0,0,0,2,0v-.08a6.29,6.29,0,0,1-2,0Z" style="fill:none"/><path d="M12,15a1,1,0,0,0-1,1v.9a5,5,0,0,0,2,0V16A1,1,0,0,0,12,15Z" style="fill:none"/><path d="M11,13.9v2a6.29,6.29,0,0,0,2,0v-2a5.05,5.05,0,0,1-2,0Z" style="fill:#e89a3f"/><path d="M19,12A7,7,0,1,0,9,18.31V16a5,5,0,1,1,6,0v2.33A7,7,0,0,0,19,12Z" style="fill:#ffaf3d"/><path d="M13,19a1,1,0,0,1-2,0v-.08a6.74,6.74,0,0,1-2-.61V19a3,3,0,0,0,6,0v-.69a6.74,6.74,0,0,1-2,.61Z" style="fill:#e89a3f"/><path d="M15,16a5,5,0,0,1-2,.92v2a6.72,6.72,0,0,0,2-.6V16Z" style="fill:#ffaf3d"/><path d="M11,16.92A5,5,0,0,1,9,16v2.34a6.72,6.72,0,0,0,2,.6Z" style="fill:#ffaf3d"/><rect x="11" y="1" width="2" height="3" style="fill:#ffaf3d"/><rect x="2.77" y="4.27" width="2" height="3" transform="translate(-2.97 4.35) rotate(-45)" style="fill:#ffaf3d"/><rect x="19.23" y="4.27" width="2" height="3" transform="translate(10 -12.62) rotate(45)" style="fill:#ffaf3d"/></g></svg>